<svg xmlns="http://www.w3.org/2000/svg" version="1.1" viewBox="-5.0 -10.0 110.0 135.0">
 <path d="m97.312 64.617c-1.5859-0.66406-2.8477-1.9688-3.4609-3.582-0.11328-0.30469-0.40625-0.50391-0.73047-0.50391-0.32422 0-0.61328 0.19922-0.73047 0.50391-0.61328 1.6133-1.875 2.918-3.4609 3.582-0.29297 0.12109-0.48047 0.40625-0.48047 0.72266s0.1875 0.60156 0.48047 0.72266c1.5859 0.66406 2.8477 1.9688 3.4609 3.582 0.11328 0.30469 0.40625 0.50391 0.73047 0.50391 0.32422 0 0.61328-0.19922 0.73047-0.50391 0.61328-1.6133 1.875-2.9219 3.4609-3.582 0.28906-0.12109 0.48047-0.40625 0.48047-0.72266s-0.1875-0.60156-0.48047-0.72266zm-4.1914 3.0234c-0.58594-0.91016-1.3516-1.6953-2.25-2.3008 0.89844-0.60156 1.6641-1.3867 2.25-2.3008 0.58594 0.91016 1.3516 1.6953 2.25 2.3008-0.89844 0.60156-1.6641 1.3867-2.25 2.3008z"/>
 <path d="m85.914 20.051c1.5859 0.66016 2.8477 1.9688 3.4609 3.582 0.11328 0.30469 0.40625 0.50391 0.73047 0.50391s0.61328-0.19922 0.73047-0.50391c0.61328-1.6133 1.875-2.9219 3.4609-3.582 0.29297-0.12109 0.48047-0.40625 0.48047-0.72266s-0.1875-0.60156-0.48047-0.72266c-1.5859-0.66016-2.8477-1.9688-3.4609-3.582-0.11328-0.30469-0.40625-0.50391-0.73047-0.50391s-0.61328 0.19922-0.73047 0.50391c-0.61328 1.6133-1.875 2.9219-3.4609 3.582-0.29297 0.12109-0.48047 0.40625-0.48047 0.72266s0.1875 0.60156 0.48047 0.72266zm4.1914-3.0234c0.58594 0.91016 1.3516 1.6953 2.25 2.3008-0.89844 0.60156-1.6641 1.3867-2.25 2.3008-0.58594-0.91016-1.3516-1.6953-2.25-2.3008 0.89844-0.60156 1.6641-1.3867 2.25-2.3008z"/>
 <path d="m33.867 16.656c2.7539 1.1484 4.9492 3.418 6.0117 6.2227 0.11328 0.30469 0.40625 0.50391 0.73047 0.50391s0.61328-0.19922 0.73047-0.50391c1.0664-2.8047 3.2578-5.0742 6.0117-6.2227 0.29297-0.12109 0.48047-0.40625 0.48047-0.72266s-0.1875-0.60156-0.48047-0.72266c-2.7539-1.1484-4.9492-3.418-6.0117-6.2227-0.11328-0.30469-0.40625-0.50391-0.73047-0.50391s-0.61328 0.19922-0.73047 0.50391c-1.0664 2.8047-3.2578 5.0742-6.0117 6.2227-0.29297 0.12109-0.48047 0.40625-0.48047 0.72266s0.1875 0.60156 0.48047 0.72266zm6.7422-5.5312c1.0977 1.9961 2.7266 3.668 4.6914 4.8086-1.9648 1.1445-3.5938 2.8125-4.6914 4.8086-1.0977-1.9961-2.7266-3.668-4.6914-4.8086 1.9648-1.1445 3.5938-2.8125 4.6914-4.8086z"/>
 <path d="m60.656 76.695c-0.49609 0.19141-1.0078 0.375-1.5273 0.54688-0.41016 0.13672-0.63281 0.57812-0.49609 0.98828 0.10938 0.32812 0.41406 0.53516 0.74219 0.53516 0.082031 0 0.16406-0.011719 0.24609-0.039063 0.54297-0.17969 1.0781-0.37109 1.5977-0.57422 0.40234-0.15625 0.60156-0.60938 0.44531-1.0117s-0.60937-0.60156-1.0117-0.44531z"/>
 <path d="m97.656 49.336c0-1.0469-0.83984-1.8984-1.8789-1.9297 2.5742-2.2773 3.7578-4.4883 3.6055-6.7188-0.34375-4.9883-7.4062-8.8477-14.887-12.934-2.8203-1.543-5.7344-3.1367-8.3203-4.8047-2.8086-1.8164-4.2266-3.8984-4.2148-6.1914 0.023437-5.7461 8.6484-11.293 8.7383-11.348 0.36328-0.23047 0.47266-0.71484 0.24219-1.0781-0.23047-0.36328-0.71094-0.47266-1.0781-0.24219-0.38281 0.24219-9.4297 6.0586-9.4609 12.66-0.011719 2.8594 1.6445 5.3867 4.9297 7.5117 2.6328 1.7031 5.5742 3.3125 8.418 4.8672 7.0898 3.875 13.789 7.5352 14.074 11.672 0.14062 2.0664-1.3398 4.2266-4.5195 6.6055h-1.75c1.6328-2.1094 2.1875-4.043 1.6797-5.875-1.4297-5.125-10.805-7.8008-21.664-10.898-2.7852-0.79297-5.6641-1.6172-8.4062-2.4883-4.3945-1.3984-7.0938-3.6133-8.0234-6.5898-1.7695-5.6641 3.3438-12.395 3.3984-12.461 0.26172-0.33984 0.19922-0.83203-0.14062-1.0938-0.33984-0.26172-0.83203-0.19922-1.0938 0.14062-0.23438 0.30078-5.6641 7.4336-3.6523 13.879 1.0898 3.4922 4.1328 6.0547 9.043 7.6172 2.7617 0.87891 5.6523 1.7031 8.4492 2.5 9.5352 2.7188 19.395 5.5352 20.586 9.8164 0.38281 1.375-0.125 2.9141-1.5469 4.6797-0.23047-0.36719-0.53125-0.69141-0.91016-0.92969-0.85547-0.54297-1.9141-0.60547-2.8359-0.17188-4.3359 2.0625-12.391 5.6797-17.629 6.7266-4.7461 0.95313-7.5273-1.6484-8.832-3.4258 0.87891-0.53516 1.4727-1.4922 1.4727-2.5938 0-1.6797-1.3672-3.043-3.043-3.043h-0.57812c-2.8594-4.0117-7.1172-6.832-11.898-7.8594 0.28125-0.59766 0.43359-1.2539 0.43359-1.9219 0-2.5117-2.0391-4.5547-4.5469-4.5547-2.5078 0-4.5547 2.043-4.5547 4.5547 0 0.66406 0.15234 1.3203 0.4375 1.9219-4.7852 1.0273-9.0469 3.8477-11.895 7.8594h-0.58594c-1.6797 0-3.043 1.3672-3.043 3.043 0 1.1484 0.64844 2.1406 1.5938 2.6602-0.51172 0.62891-0.96875 1.3047-1.375 2.0195-3.0781-2.2383-7.8359-4.1328-13.93-1.7227-6.7109 2.6562-8.8359 9.7969-7.4297 15.172 1.2344 4.7109 4.7734 7.5508 9.2227 7.5508 0.48438 0 0.98438-0.035157 1.4922-0.10156 3.3945-0.46484 5.7617-2.3281 6.4961-5.1211 0.76953-2.9297-0.4375-6.3984-2.8672-8.25-1.3164-1-2.8516-1.4336-4.4531-1.2969 0.92188-0.68359 2.0625-1.3398 3.3516-1.7031 0.41406-0.11719 0.66016-0.54687 0.54297-0.96094-0.11719-0.41406-0.55078-0.65625-0.96094-0.54297-3.9062 1.0898-6.4961 4.4141-6.6055 4.5547-0.22656 0.29688-0.21484 0.71094 0.03125 0.99219s0.66016 0.34766 0.98047 0.16016c2.2305-1.3008 4.418-1.2852 6.168 0.042968 1.9492 1.4844 2.918 4.2617 2.3008 6.6055-0.57422 2.1797-2.418 3.5898-5.1992 3.9688-5.2227 0.71094-8.0703-2.7852-8.9922-6.2969-1.2695-4.8438 0.55469-10.977 6.4922-13.324 4.5352-1.793 8.7852-1.2188 12.645 1.6953-0.35547 0.80078-0.64844 1.6406-0.88281 2.5117-1.1445-0.64453-2.3203-1.0547-3.5156-1.1914-0.44141-0.050781-0.81641 0.25781-0.86719 0.68359-0.050781 0.42969 0.25781 0.81641 0.68359 0.86719 1.1289 0.13281 2.2539 0.55859 3.3438 1.2461-0.66406 3.7422-0.26172 7.8672 1.332 11.664 2.3047 5.5 6.6289 9.4141 12.344 11.383-0.28516 2.2539-1.2734 6.8789-4.6758 10.457h-1.9648c-1.6797 0-3.043 1.3672-3.043 3.043 0 1.6797 1.3672 3.043 3.043 3.043h28.664c1.6797 0 3.043-1.3672 3.043-3.043 0-1.6797-1.3672-3.043-3.043-3.043h-1.9688c-2.8945-3.0547-4.0352-6.8633-4.4805-9.2695 2.418-0.21875 4.6523-0.56641 6.7383-1.0586 0.41797-0.097656 0.67969-0.51953 0.58203-0.94141-0.097657-0.42188-0.51953-0.68359-0.94141-0.58203-3.6797 0.86719-7.8516 1.2891-12.75 1.2891-9.6133 0-16.941-4.332-20.105-11.887-2.707-6.457-1.75-13.895 2.3008-18.23h32.875c1.1992 1.7969 4.5977 5.7383 10.727 4.5078 5.4062-1.0781 13.594-4.7539 17.992-6.8477 0.4375-0.20703 0.92188-0.17578 1.3281 0.082032 0.40625 0.25781 0.64062 0.68359 0.64062 1.168 0 0.42969 0.34766 0.78125 0.78125 0.78125h5.8594c0.21094 0 0.375 0.16406 0.375 0.375 0 0.15234-0.097656 0.29297-0.23828 0.34766-2.6992 1.0234-12.062 5.0664-19.211 14.16-4.375 5.5703-8.3672 9.1094-12.941 11.477-0.38281 0.19922-0.53125 0.66797-0.33594 1.0547 0.14062 0.26953 0.41016 0.42188 0.69531 0.42188 0.12109 0 0.24219-0.027344 0.35938-0.085938 4.7812-2.4727 8.9297-6.1445 13.449-11.898 6.9023-8.7812 15.934-12.68 18.543-13.668 0.74219-0.28516 1.2422-1.0117 1.2422-1.8086zm-62.027 30.621c1.6953 0.46484 3.5 0.76953 5.3984 0.90625v9.0859h-9.5195c2.8438-3.5625 3.8008-7.7109 4.1172-9.9922zm21.992 13.035c0 0.81641-0.66406 1.4805-1.4805 1.4805h-28.664c-0.81641 0-1.4805-0.66406-1.4805-1.4805 0-0.81641 0.66406-1.4805 1.4805-1.4805h2.2891c0.003906 0 0.011719 0.003906 0.015625 0.003906s0.011719-0.003906 0.015625-0.003906h12c0.003906 0 0.011719 0.003906 0.015625 0.003906s0.011719-0.003906 0.015625-0.003906h11.992c0.003907 0 0.011719 0.003906 0.015626 0.003906 0.003906 0 0.011718-0.003906 0.015624-0.003906h2.2891c0.81641 0 1.4805 0.66406 1.4805 1.4805zm-9.4961-12.191c0.41016 2.3242 1.4375 5.9648 3.9727 9.1484h-9.5078v-9.0195c0.24219 0.003906 0.48047 0.019531 0.72656 0.019531 1.6836 0 3.2773-0.054688 4.8047-0.15234zm-6.3125-50.387c1.6445 0 2.9844 1.3438 2.9844 2.9922 0 0.61719-0.19922 1.1953-0.55859 1.6992h-4.8633c-0.28516-0.39844-0.55859-0.96094-0.55859-1.6992 0-1.6484 1.3438-2.9922 2.9922-2.9922zm-2.7695 6.2539h5.5391c4.4336 0.6875 8.4688 3.0352 11.293 6.5156h-28.129c2.8164-3.4844 6.8555-5.8281 11.297-6.5156zm-13.828 8.0781h0.95312c0.007812 0 0.011719 0.003906 0.019531 0.003906s0.015625-0.003906 0.023438-0.003906h32.195c0.81641 0 1.4805 0.66406 1.4805 1.4805 0 0.71484-0.51172 1.3164-1.1875 1.4531-0.007813 0-0.019531 0-0.027344 0.003906-0.085937 0.015625-0.17578 0.027344-0.26562 0.027344h-33.188c-0.81641 0-1.4805-0.66406-1.4805-1.4805 0-0.81641 0.66406-1.4805 1.4805-1.4805z"/>
 <path d="m70.184 58.516c-0.15625-0.40234-0.60938-0.60156-1.0117-0.44531-22.07 8.6055-35.809 4.4219-42.031 1.1602-0.38281-0.19922-0.85547-0.054688-1.0547 0.32812-0.19922 0.38281-0.050782 0.85547 0.32812 1.0547 3.6328 1.9023 9.7188 4.1133 18.379 4.1133 6.7383 0 15.035-1.3398 24.945-5.2031 0.40234-0.15625 0.60156-0.60938 0.44531-1.0117z"/>
<text x="0.0" y="117.5" font-size="5.0" font-weight="bold" font-family="Arbeit Regular, Helvetica, Arial-Unicode, Arial, Sans-serif" fill="#000000">Created by Hafiz Nur Lutfianto</text><text x="0.0" y="122.5" font-size="5.0" font-weight="bold" font-family="Arbeit Regular, Helvetica, Arial-Unicode, Arial, Sans-serif" fill="#000000">from Noun Project</text></svg>